<svg width="81" height="80" viewBox="0 0 81 80" fill="none" xmlns="http://www.w3.org/2000/svg">
<circle cx="40.0645" cy="40" r="40" fill="white"/>
<path d="M50.9049 31.8949C54.2624 31.8949 56.9842 29.1731 56.9842 25.8156C56.9842 22.4581 54.2624 19.7363 50.9049 19.7363C47.5475 19.7363 44.8257 22.4581 44.8257 25.8156C44.8257 29.1731 47.5475 31.8949 50.9049 31.8949Z" stroke="#EF8435" stroke-width="4" stroke-linecap="round" stroke-linejoin="round"/>
<path d="M26.5881 46.0804C29.9455 46.0804 32.6673 43.3586 32.6673 40.0011C32.6673 36.6437 29.9455 33.9219 26.5881 33.9219C23.2306 33.9219 20.5088 36.6437 20.5088 40.0011C20.5088 43.3586 23.2306 46.0804 26.5881 46.0804Z" stroke="#EF8435" stroke-width="4" stroke-linecap="round" stroke-linejoin="round"/>
<path d="M50.9049 60.264C54.2624 60.264 56.9842 57.5422 56.9842 54.1847C56.9842 50.8272 54.2624 48.1055 50.9049 48.1055C47.5475 48.1055 44.8257 50.8272 44.8257 54.1847C44.8257 57.5422 47.5475 60.264 50.9049 60.264Z" stroke="#EF8435" stroke-width="4" stroke-linecap="round" stroke-linejoin="round"/>
<path d="M31.8364 43.0605L45.6769 51.1257" stroke="#EF8435" stroke-width="4" stroke-linecap="round" stroke-linejoin="round"/>
<path d="M45.6566 28.875L31.8364 36.9402" stroke="#EF8435" stroke-width="4" stroke-linecap="round" stroke-linejoin="round"/>
</svg>
