<svg width="788" height="72" viewBox="0 0 788 72" fill="none" xmlns="http://www.w3.org/2000/svg">
<path d="M7.66 18.74C6.27333 18.74 5.07333 18.44 4.06 17.84C3.06 17.2267 2.28667 16.38 1.74 15.3C1.19333 14.2067 0.92 12.9467 0.92 11.52C0.92 10.08 1.19333 8.82 1.74 7.74C2.28667 6.64667 3.06 5.79333 4.06 5.18C5.07333 4.56667 6.27333 4.26 7.66 4.26C9.3 4.26 10.64 4.66 11.68 5.46C12.72 6.26 13.38 7.38 13.66 8.82H11.3C11.1133 8.00667 10.7133 7.36 10.1 6.88C9.48667 6.4 8.66667 6.16 7.64 6.16C6.24 6.16 5.13333 6.64 4.32 7.6C3.50667 8.54667 3.1 9.85333 3.1 11.52C3.1 13.1733 3.50667 14.4733 4.32 15.42C5.13333 16.3667 6.24 16.84 7.64 16.84C8.66667 16.84 9.48667 16.6133 10.1 16.16C10.7133 15.7067 11.1133 15.0867 11.3 14.3H13.66C13.38 15.6867 12.72 16.7733 11.68 17.56C10.64 18.3467 9.3 18.74 7.66 18.74ZM15.9103 18.5V4.1H18.0303V18.5H15.9103ZM21.915 6.7C21.515 6.7 21.1817 6.58 20.915 6.34C20.6617 6.08667 20.535 5.77333 20.535 5.4C20.535 5.02667 20.6617 4.72 20.915 4.48C21.1817 4.22667 21.515 4.1 21.915 4.1C22.315 4.1 22.6417 4.22667 22.895 4.48C23.1617 4.72 23.295 5.02667 23.295 5.4C23.295 5.77333 23.1617 6.08667 22.895 6.34C22.6417 6.58 22.315 6.7 21.915 6.7ZM20.855 18.5V8.58H22.975V18.5H20.855ZM30.4136 18.74C29.4403 18.74 28.5736 18.5267 27.8136 18.1C27.0669 17.66 26.4803 17.0533 26.0536 16.28C25.6269 15.5067 25.4136 14.6067 25.4136 13.58C25.4136 12.54 25.6203 11.6267 26.0336 10.84C26.4603 10.0533 27.0469 9.44 27.7936 9C28.5536 8.56 29.4336 8.34 30.4336 8.34C31.4069 8.34 32.2536 8.56 32.9736 9C33.6936 9.42667 34.2536 10 34.6536 10.72C35.0536 11.44 35.2536 12.2333 35.2536 13.1C35.2536 13.2333 35.2469 13.38 35.2336 13.54C35.2336 13.6867 35.2269 13.8533 35.2136 14.04H27.4936C27.5603 15 27.8736 15.7333 28.4336 16.24C29.0069 16.7333 29.6669 16.98 30.4136 16.98C31.0136 16.98 31.5136 16.8467 31.9136 16.58C32.3269 16.3 32.6336 15.9267 32.8336 15.46H34.9536C34.6869 16.3933 34.1536 17.1733 33.3536 17.8C32.5669 18.4267 31.5869 18.74 30.4136 18.74ZM30.4136 10.08C29.7069 10.08 29.0803 10.2933 28.5336 10.72C27.9869 11.1333 27.6536 11.76 27.5336 12.6H33.1336C33.0936 11.8267 32.8203 11.2133 32.3136 10.76C31.8069 10.3067 31.1736 10.08 30.4136 10.08ZM37.4533 18.5V8.58H39.3333L39.4933 10.32C39.7999 9.70667 40.2466 9.22667 40.8333 8.88C41.4333 8.52 42.1199 8.34 42.8933 8.34C44.0933 8.34 45.0333 8.71333 45.7133 9.46C46.4066 10.2067 46.7533 11.32 46.7533 12.8V18.5H44.6533V13.02C44.6533 11.1 43.8666 10.14 42.2933 10.14C41.5066 10.14 40.8533 10.42 40.3333 10.98C39.8266 11.54 39.5733 12.34 39.5733 13.38V18.5H37.4533ZM53.4102 18.5C52.4368 18.5 51.6635 18.2667 51.0902 17.8C50.5168 17.32 50.2302 16.4733 50.2302 15.26V10.36H48.5302V8.58H50.2302L50.4902 6.06H52.3502V8.58H55.1502V10.36H52.3502V15.26C52.3502 15.8067 52.4635 16.1867 52.6902 16.4C52.9302 16.6 53.3368 16.7 53.9102 16.7H55.0502V18.5H53.4102Z" fill="#D9D9D9"/>
<path d="M2.04 64.5V43.5H9.81C11.49 43.5 12.88 43.78 13.98 44.34C15.08 44.9 15.9 45.67 16.44 46.65C16.98 47.63 17.25 48.73 17.25 49.95C17.25 51.11 16.99 52.18 16.47 53.16C15.95 54.12 15.14 54.9 14.04 55.5C12.94 56.08 11.53 56.37 9.81 56.37H5.88V64.5H2.04ZM5.88 53.25H9.57C10.91 53.25 11.87 52.96 12.45 52.38C13.05 51.78 13.35 50.97 13.35 49.95C13.35 48.91 13.05 48.1 12.45 47.52C11.87 46.92 10.91 46.62 9.57 46.62H5.88V53.25ZM20.1727 64.5V49.62H23.5927L23.9527 52.41C24.4927 51.45 25.2227 50.69 26.1427 50.13C27.0827 49.55 28.1827 49.26 29.4427 49.26V53.31H28.3627C27.5227 53.31 26.7727 53.44 26.1127 53.7C25.4527 53.96 24.9327 54.41 24.5527 55.05C24.1927 55.69 24.0127 56.58 24.0127 57.72V64.5H20.1727ZM38.9435 64.86C37.5035 64.86 36.2035 64.53 35.0435 63.87C33.9035 63.21 32.9935 62.3 32.3135 61.14C31.6535 59.96 31.3235 58.6 31.3235 57.06C31.3235 55.52 31.6635 54.17 32.3435 53.01C33.0235 51.83 33.9335 50.91 35.0735 50.25C36.2335 49.59 37.5335 49.26 38.9735 49.26C40.3935 49.26 41.6735 49.59 42.8135 50.25C43.9735 50.91 44.8835 51.83 45.5435 53.01C46.2235 54.17 46.5635 55.52 46.5635 57.06C46.5635 58.6 46.2235 59.96 45.5435 61.14C44.8835 62.3 43.9735 63.21 42.8135 63.87C41.6535 64.53 40.3635 64.86 38.9435 64.86ZM38.9435 61.53C39.9435 61.53 40.8135 61.16 41.5535 60.42C42.2935 59.66 42.6635 58.54 42.6635 57.06C42.6635 55.58 42.2935 54.47 41.5535 53.73C40.8135 52.97 39.9535 52.59 38.9735 52.59C37.9535 52.59 37.0735 52.97 36.3335 53.73C35.6135 54.47 35.2535 55.58 35.2535 57.06C35.2535 58.54 35.6135 59.66 36.3335 60.42C37.0735 61.16 37.9435 61.53 38.9435 61.53ZM49.9969 64.5V49.62H53.3869L53.7169 51.63C54.1969 50.91 54.8269 50.34 55.6069 49.92C56.4069 49.48 57.3269 49.26 58.3669 49.26C60.6669 49.26 62.2969 50.15 63.2569 51.93C63.7969 51.11 64.5169 50.46 65.4169 49.98C66.3369 49.5 67.3369 49.26 68.4169 49.26C70.3569 49.26 71.8469 49.84 72.8869 51C73.9269 52.16 74.4469 53.86 74.4469 56.1V64.5H70.6069V56.46C70.6069 55.18 70.3569 54.2 69.8569 53.52C69.3769 52.84 68.6269 52.5 67.6069 52.5C66.5669 52.5 65.7269 52.88 65.0869 53.64C64.4669 54.4 64.1569 55.46 64.1569 56.82V64.5H60.3169V56.46C60.3169 55.18 60.0669 54.2 59.5669 53.52C59.0669 52.84 58.2969 52.5 57.2569 52.5C56.2369 52.5 55.4069 52.88 54.7669 53.64C54.1469 54.4 53.8369 55.46 53.8369 56.82V64.5H49.9969ZM85.2326 64.86C83.7926 64.86 82.4926 64.53 81.3326 63.87C80.1926 63.21 79.2826 62.3 78.6026 61.14C77.9426 59.96 77.6126 58.6 77.6126 57.06C77.6126 55.52 77.9526 54.17 78.6326 53.01C79.3126 51.83 80.2226 50.91 81.3626 50.25C82.5226 49.59 83.8226 49.26 85.2626 49.26C86.6826 49.26 87.9626 49.59 89.1026 50.25C90.2626 50.91 91.1726 51.83 91.8326 53.01C92.5126 54.17 92.8526 55.52 92.8526 57.06C92.8526 58.6 92.5126 59.96 91.8326 61.14C91.1726 62.3 90.2626 63.21 89.1026 63.87C87.9426 64.53 86.6526 64.86 85.2326 64.86ZM85.2326 61.53C86.2326 61.53 87.1026 61.16 87.8426 60.42C88.5826 59.66 88.9526 58.54 88.9526 57.06C88.9526 55.58 88.5826 54.47 87.8426 53.73C87.1026 52.97 86.2426 52.59 85.2626 52.59C84.2426 52.59 83.3626 52.97 82.6226 53.73C81.9026 54.47 81.5426 55.58 81.5426 57.06C81.5426 58.54 81.9026 59.66 82.6226 60.42C83.3626 61.16 84.2326 61.53 85.2326 61.53ZM96.2859 71.1V49.62H99.7059L100.126 51.75C100.606 51.09 101.236 50.51 102.016 50.01C102.816 49.51 103.846 49.26 105.106 49.26C106.506 49.26 107.756 49.6 108.856 50.28C109.956 50.96 110.826 51.89 111.466 53.07C112.106 54.25 112.426 55.59 112.426 57.09C112.426 58.59 112.106 59.93 111.466 61.11C110.826 62.27 109.956 63.19 108.856 63.87C107.756 64.53 106.506 64.86 105.106 64.86C103.986 64.86 103.006 64.65 102.166 64.23C101.326 63.81 100.646 63.22 100.126 62.46V71.1H96.2859ZM104.296 61.5C105.516 61.5 106.526 61.09 107.326 60.27C108.126 59.45 108.526 58.39 108.526 57.09C108.526 55.79 108.126 54.72 107.326 53.88C106.526 53.04 105.516 52.62 104.296 52.62C103.056 52.62 102.036 53.04 101.236 53.88C100.456 54.7 100.066 55.76 100.066 57.06C100.066 58.36 100.456 59.43 101.236 60.27C102.036 61.09 103.056 61.5 104.296 61.5ZM115.856 64.5V42.9H119.696V64.5H115.856ZM129.2 64.86C127.34 64.86 125.9 64.28 124.88 63.12C123.88 61.96 123.38 60.26 123.38 58.02V49.62H127.19V57.66C127.19 58.94 127.45 59.92 127.97 60.6C128.49 61.28 129.31 61.62 130.43 61.62C131.49 61.62 132.36 61.24 133.04 60.48C133.74 59.72 134.09 58.66 134.09 57.3V49.62H137.93V64.5H134.54L134.24 61.98C133.78 62.86 133.11 63.56 132.23 64.08C131.37 64.6 130.36 64.86 129.2 64.86ZM148.022 64.86C146.702 64.86 145.542 64.65 144.542 64.23C143.542 63.79 142.742 63.19 142.142 62.43C141.542 61.67 141.182 60.79 141.062 59.79H144.932C145.052 60.37 145.372 60.87 145.892 61.29C146.432 61.69 147.122 61.89 147.962 61.89C148.802 61.89 149.412 61.72 149.792 61.38C150.192 61.04 150.392 60.65 150.392 60.21C150.392 59.57 150.112 59.14 149.552 58.92C148.992 58.68 148.212 58.45 147.212 58.23C146.572 58.09 145.922 57.92 145.262 57.72C144.602 57.52 143.992 57.27 143.432 56.97C142.892 56.65 142.452 56.25 142.112 55.77C141.772 55.27 141.602 54.66 141.602 53.94C141.602 52.62 142.122 51.51 143.162 50.61C144.222 49.71 145.702 49.26 147.602 49.26C149.362 49.26 150.762 49.67 151.802 50.49C152.862 51.31 153.492 52.44 153.692 53.88H150.062C149.842 52.78 149.012 52.23 147.572 52.23C146.852 52.23 146.292 52.37 145.892 52.65C145.512 52.93 145.322 53.28 145.322 53.7C145.322 54.14 145.612 54.49 146.192 54.75C146.772 55.01 147.542 55.25 148.502 55.47C149.542 55.71 150.492 55.98 151.352 56.28C152.232 56.56 152.932 56.99 153.452 57.57C153.972 58.13 154.232 58.94 154.232 60C154.252 60.92 154.012 61.75 153.512 62.49C153.012 63.23 152.292 63.81 151.352 64.23C150.412 64.65 149.302 64.86 148.022 64.86Z" fill="white"/>
<path d="M327.04 18.74C326.013 18.74 325.113 18.56 324.34 18.2C323.567 17.84 322.96 17.3267 322.52 16.66C322.093 15.9933 321.873 15.2 321.86 14.28H324.1C324.113 15.0267 324.373 15.66 324.88 16.18C325.387 16.7 326.1 16.96 327.02 16.96C327.833 16.96 328.467 16.7667 328.92 16.38C329.387 15.98 329.62 15.4733 329.62 14.86C329.62 14.3667 329.507 13.9667 329.28 13.66C329.067 13.3533 328.767 13.1 328.38 12.9C328.007 12.7 327.573 12.52 327.08 12.36C326.587 12.2 326.067 12.0267 325.52 11.84C324.44 11.48 323.627 11.0133 323.08 10.44C322.547 9.86667 322.28 9.11333 322.28 8.18C322.267 7.39333 322.447 6.70667 322.82 6.12C323.207 5.53333 323.74 5.08 324.42 4.76C325.113 4.42667 325.92 4.26 326.84 4.26C327.747 4.26 328.54 4.42667 329.22 4.76C329.913 5.09333 330.453 5.56 330.84 6.16C331.227 6.74667 331.427 7.43333 331.44 8.22H329.2C329.2 7.86 329.107 7.52 328.92 7.2C328.733 6.86667 328.46 6.59333 328.1 6.38C327.74 6.16667 327.3 6.06 326.78 6.06C326.113 6.04667 325.56 6.21333 325.12 6.56C324.693 6.90667 324.48 7.38667 324.48 8C324.48 8.54667 324.64 8.96667 324.96 9.26C325.28 9.55333 325.72 9.8 326.28 10C326.84 10.1867 327.48 10.4067 328.2 10.66C328.893 10.8867 329.513 11.16 330.06 11.48C330.607 11.8 331.04 12.22 331.36 12.74C331.693 13.26 331.86 13.92 331.86 14.72C331.86 15.4267 331.68 16.0867 331.32 16.7C330.96 17.3 330.42 17.7933 329.7 18.18C328.98 18.5533 328.093 18.74 327.04 18.74ZM338.738 18.74C337.764 18.74 336.898 18.5267 336.138 18.1C335.391 17.66 334.804 17.0533 334.378 16.28C333.951 15.5067 333.738 14.6067 333.738 13.58C333.738 12.54 333.944 11.6267 334.358 10.84C334.784 10.0533 335.371 9.44 336.118 9C336.878 8.56 337.758 8.34 338.758 8.34C339.731 8.34 340.578 8.56 341.298 9C342.018 9.42667 342.578 10 342.978 10.72C343.378 11.44 343.578 12.2333 343.578 13.1C343.578 13.2333 343.571 13.38 343.558 13.54C343.558 13.6867 343.551 13.8533 343.538 14.04H335.818C335.884 15 336.198 15.7333 336.758 16.24C337.331 16.7333 337.991 16.98 338.738 16.98C339.338 16.98 339.838 16.8467 340.238 16.58C340.651 16.3 340.958 15.9267 341.158 15.46H343.278C343.011 16.3933 342.478 17.1733 341.678 17.8C340.891 18.4267 339.911 18.74 338.738 18.74ZM338.738 10.08C338.031 10.08 337.404 10.2933 336.858 10.72C336.311 11.1333 335.978 11.76 335.858 12.6H341.458C341.418 11.8267 341.144 11.2133 340.638 10.76C340.131 10.3067 339.498 10.08 338.738 10.08ZM345.778 18.5V8.58H347.678L347.858 10.46C348.204 9.80667 348.684 9.29333 349.298 8.92C349.924 8.53333 350.678 8.34 351.558 8.34V10.56H350.978C350.391 10.56 349.864 10.66 349.398 10.86C348.944 11.0467 348.578 11.3733 348.298 11.84C348.031 12.2933 347.898 12.9267 347.898 13.74V18.5H345.778ZM356.155 18.5L352.435 8.58H354.655L357.415 16.48L360.175 8.58H362.375L358.675 18.5H356.155ZM365.317 6.7C364.917 6.7 364.584 6.58 364.317 6.34C364.064 6.08667 363.937 5.77333 363.937 5.4C363.937 5.02667 364.064 4.72 364.317 4.48C364.584 4.22667 364.917 4.1 365.317 4.1C365.717 4.1 366.044 4.22667 366.297 4.48C366.564 4.72 366.697 5.02667 366.697 5.4C366.697 5.77333 366.564 6.08667 366.297 6.34C366.044 6.58 365.717 6.7 365.317 6.7ZM364.257 18.5V8.58H366.377V18.5H364.257ZM373.876 18.74C372.903 18.74 372.029 18.52 371.256 18.08C370.496 17.64 369.896 17.0333 369.456 16.26C369.029 15.4733 368.816 14.5667 368.816 13.54C368.816 12.5133 369.029 11.6133 369.456 10.84C369.896 10.0533 370.496 9.44 371.256 9C372.029 8.56 372.903 8.34 373.876 8.34C375.103 8.34 376.129 8.66 376.956 9.3C377.796 9.94 378.336 10.8067 378.576 11.9H376.356C376.223 11.3533 375.929 10.9267 375.476 10.62C375.023 10.3133 374.489 10.16 373.876 10.16C373.356 10.16 372.876 10.2933 372.436 10.56C371.996 10.8133 371.643 11.1933 371.376 11.7C371.109 12.1933 370.976 12.8067 370.976 13.54C370.976 14.2733 371.109 14.8933 371.376 15.4C371.643 15.8933 371.996 16.2733 372.436 16.54C372.876 16.8067 373.356 16.94 373.876 16.94C374.489 16.94 375.023 16.7867 375.476 16.48C375.929 16.1733 376.223 15.74 376.356 15.18H378.576C378.349 16.2467 377.816 17.1067 376.976 17.76C376.136 18.4133 375.103 18.74 373.876 18.74ZM385.515 18.74C384.542 18.74 383.675 18.5267 382.915 18.1C382.168 17.66 381.582 17.0533 381.155 16.28C380.728 15.5067 380.515 14.6067 380.515 13.58C380.515 12.54 380.722 11.6267 381.135 10.84C381.562 10.0533 382.148 9.44 382.895 9C383.655 8.56 384.535 8.34 385.535 8.34C386.508 8.34 387.355 8.56 388.075 9C388.795 9.42667 389.355 10 389.755 10.72C390.155 11.44 390.355 12.2333 390.355 13.1C390.355 13.2333 390.348 13.38 390.335 13.54C390.335 13.6867 390.328 13.8533 390.315 14.04H382.595C382.662 15 382.975 15.7333 383.535 16.24C384.108 16.7333 384.768 16.98 385.515 16.98C386.115 16.98 386.615 16.8467 387.015 16.58C387.428 16.3 387.735 15.9267 387.935 15.46H390.055C389.788 16.3933 389.255 17.1733 388.455 17.8C387.668 18.4267 386.688 18.74 385.515 18.74ZM385.515 10.08C384.808 10.08 384.182 10.2933 383.635 10.72C383.088 11.1333 382.755 11.76 382.635 12.6H388.235C388.195 11.8267 387.922 11.2133 387.415 10.76C386.908 10.3067 386.275 10.08 385.515 10.08Z" fill="#D9D9D9"/>
<path d="M327.3 64.5L321.75 43.5H325.86L329.64 60.21L334.08 43.5H338.31L342.63 60.21L346.41 43.5H350.55L344.85 64.5H340.29L336.12 48.93L331.83 64.5H327.3ZM358.891 64.86C357.391 64.86 356.061 64.54 354.901 63.9C353.741 63.26 352.831 62.36 352.171 61.2C351.511 60.04 351.181 58.7 351.181 57.18C351.181 55.64 351.501 54.27 352.141 53.07C352.801 51.87 353.701 50.94 354.841 50.28C356.001 49.6 357.361 49.26 358.921 49.26C360.381 49.26 361.671 49.58 362.791 50.22C363.911 50.86 364.781 51.74 365.401 52.86C366.041 53.96 366.361 55.19 366.361 56.55C366.361 56.77 366.351 57 366.331 57.24C366.331 57.48 366.321 57.73 366.301 57.99H354.991C355.071 59.15 355.471 60.06 356.191 60.72C356.931 61.38 357.821 61.71 358.861 61.71C359.641 61.71 360.291 61.54 360.811 61.2C361.351 60.84 361.751 60.38 362.011 59.82H365.911C365.631 60.76 365.161 61.62 364.501 62.4C363.861 63.16 363.061 63.76 362.101 64.2C361.161 64.64 360.091 64.86 358.891 64.86ZM358.921 52.38C357.981 52.38 357.151 52.65 356.431 53.19C355.711 53.71 355.251 54.51 355.051 55.59H362.461C362.401 54.61 362.041 53.83 361.381 53.25C360.721 52.67 359.901 52.38 358.921 52.38ZM378.411 64.86C377.291 64.86 376.311 64.65 375.471 64.23C374.631 63.81 373.951 63.22 373.431 62.46L373.011 64.5H369.591V42.9H373.431V51.75C373.911 51.09 374.541 50.51 375.321 50.01C376.121 49.51 377.151 49.26 378.411 49.26C379.811 49.26 381.061 49.6 382.161 50.28C383.261 50.96 384.131 51.89 384.771 53.07C385.411 54.25 385.731 55.59 385.731 57.09C385.731 58.59 385.411 59.93 384.771 61.11C384.131 62.27 383.261 63.19 382.161 63.87C381.061 64.53 379.811 64.86 378.411 64.86ZM377.601 61.5C378.821 61.5 379.831 61.09 380.631 60.27C381.431 59.45 381.831 58.39 381.831 57.09C381.831 55.79 381.431 54.72 380.631 53.88C379.831 53.04 378.821 52.62 377.601 52.62C376.361 52.62 375.341 53.04 374.541 53.88C373.761 54.7 373.371 55.76 373.371 57.06C373.371 58.36 373.761 59.43 374.541 60.27C375.341 61.09 376.361 61.5 377.601 61.5ZM403.149 64.86C401.749 64.86 400.499 64.52 399.399 63.84C398.299 63.16 397.429 62.23 396.789 61.05C396.149 59.87 395.829 58.53 395.829 57.03C395.829 55.53 396.149 54.2 396.789 53.04C397.429 51.86 398.299 50.94 399.399 50.28C400.499 49.6 401.749 49.26 403.149 49.26C404.269 49.26 405.249 49.47 406.089 49.89C406.929 50.31 407.609 50.9 408.129 51.66V42.9H411.969V64.5H408.549L408.129 62.37C407.649 63.03 407.009 63.61 406.209 64.11C405.429 64.61 404.409 64.86 403.149 64.86ZM403.959 61.5C405.199 61.5 406.209 61.09 406.989 60.27C407.789 59.43 408.189 58.36 408.189 57.06C408.189 55.76 407.789 54.7 406.989 53.88C406.209 53.04 405.199 52.62 403.959 52.62C402.739 52.62 401.729 53.03 400.929 53.85C400.129 54.67 399.729 55.73 399.729 57.03C399.729 58.33 400.129 59.4 400.929 60.24C401.729 61.08 402.739 61.5 403.959 61.5ZM423.11 64.86C421.61 64.86 420.28 64.54 419.12 63.9C417.96 63.26 417.05 62.36 416.39 61.2C415.73 60.04 415.4 58.7 415.4 57.18C415.4 55.64 415.72 54.27 416.36 53.07C417.02 51.87 417.92 50.94 419.06 50.28C420.22 49.6 421.58 49.26 423.14 49.26C424.6 49.26 425.89 49.58 427.01 50.22C428.13 50.86 429 51.74 429.62 52.86C430.26 53.96 430.58 55.19 430.58 56.55C430.58 56.77 430.57 57 430.55 57.24C430.55 57.48 430.54 57.73 430.52 57.99H419.21C419.29 59.15 419.69 60.06 420.41 60.72C421.15 61.38 422.04 61.71 423.08 61.71C423.86 61.71 424.51 61.54 425.03 61.2C425.57 60.84 425.97 60.38 426.23 59.82H430.13C429.85 60.76 429.38 61.62 428.72 62.4C428.08 63.16 427.28 63.76 426.32 64.2C425.38 64.64 424.31 64.86 423.11 64.86ZM423.14 52.38C422.2 52.38 421.37 52.65 420.65 53.19C419.93 53.71 419.47 54.51 419.27 55.59H426.68C426.62 54.61 426.26 53.83 425.6 53.25C424.94 52.67 424.12 52.38 423.14 52.38ZM439.959 64.86C438.639 64.86 437.479 64.65 436.479 64.23C435.479 63.79 434.679 63.19 434.079 62.43C433.479 61.67 433.119 60.79 432.999 59.79H436.869C436.989 60.37 437.309 60.87 437.829 61.29C438.369 61.69 439.059 61.89 439.899 61.89C440.739 61.89 441.349 61.72 441.729 61.38C442.129 61.04 442.329 60.65 442.329 60.21C442.329 59.57 442.049 59.14 441.489 58.92C440.929 58.68 440.149 58.45 439.149 58.23C438.509 58.09 437.859 57.92 437.199 57.72C436.539 57.52 435.929 57.27 435.369 56.97C434.829 56.65 434.389 56.25 434.049 55.77C433.709 55.27 433.539 54.66 433.539 53.94C433.539 52.62 434.059 51.51 435.099 50.61C436.159 49.71 437.639 49.26 439.539 49.26C441.299 49.26 442.699 49.67 443.739 50.49C444.799 51.31 445.429 52.44 445.629 53.88H441.999C441.779 52.78 440.949 52.23 439.509 52.23C438.789 52.23 438.229 52.37 437.829 52.65C437.449 52.93 437.259 53.28 437.259 53.7C437.259 54.14 437.549 54.49 438.129 54.75C438.709 55.01 439.479 55.25 440.439 55.47C441.479 55.71 442.429 55.98 443.289 56.28C444.169 56.56 444.869 56.99 445.389 57.57C445.909 58.13 446.169 58.94 446.169 60C446.189 60.92 445.949 61.75 445.449 62.49C444.949 63.23 444.229 63.81 443.289 64.23C442.349 64.65 441.239 64.86 439.959 64.86ZM451.641 47.31C450.941 47.31 450.361 47.1 449.901 46.68C449.461 46.26 449.241 45.73 449.241 45.09C449.241 44.45 449.461 43.93 449.901 43.53C450.361 43.11 450.941 42.9 451.641 42.9C452.341 42.9 452.911 43.11 453.351 43.53C453.811 43.93 454.041 44.45 454.041 45.09C454.041 45.73 453.811 46.26 453.351 46.68C452.911 47.1 452.341 47.31 451.641 47.31ZM449.721 64.5V49.62H453.561V64.5H449.721ZM463.869 60.06C463.149 60.06 462.479 59.98 461.859 59.82L460.749 60.93C461.089 61.11 461.549 61.26 462.129 61.38C462.709 61.5 463.649 61.62 464.949 61.74C466.929 61.92 468.369 62.39 469.269 63.15C470.169 63.91 470.619 64.96 470.619 66.3C470.619 67.18 470.379 68.01 469.899 68.79C469.419 69.59 468.679 70.23 467.679 70.71C466.679 71.21 465.399 71.46 463.839 71.46C461.719 71.46 460.009 71.06 458.709 70.26C457.409 69.48 456.759 68.3 456.759 66.72C456.759 65.38 457.409 64.22 458.709 63.24C458.309 63.06 457.959 62.87 457.659 62.67C457.379 62.47 457.129 62.26 456.909 62.04V61.35L459.519 58.59C458.359 57.57 457.779 56.26 457.779 54.66C457.779 53.66 458.019 52.75 458.499 51.93C458.999 51.11 459.699 50.46 460.599 49.98C461.499 49.5 462.589 49.26 463.869 49.26C464.709 49.26 465.489 49.38 466.209 49.62H471.849V51.96L469.299 52.14C469.699 52.9 469.899 53.74 469.899 54.66C469.899 55.66 469.659 56.57 469.179 57.39C468.699 58.21 467.999 58.86 467.079 59.34C466.179 59.82 465.109 60.06 463.869 60.06ZM463.869 57.12C464.649 57.12 465.289 56.91 465.789 56.49C466.309 56.07 466.569 55.47 466.569 54.69C466.569 53.91 466.309 53.31 465.789 52.89C465.289 52.47 464.649 52.26 463.869 52.26C463.049 52.26 462.389 52.47 461.889 52.89C461.389 53.31 461.139 53.91 461.139 54.69C461.139 55.47 461.389 56.07 461.889 56.49C462.389 56.91 463.049 57.12 463.869 57.12ZM460.269 66.33C460.269 67.07 460.609 67.62 461.289 67.98C461.989 68.36 462.839 68.55 463.839 68.55C464.799 68.55 465.579 68.35 466.179 67.95C466.779 67.57 467.079 67.05 467.079 66.39C467.079 65.85 466.879 65.4 466.479 65.04C466.099 64.68 465.329 64.46 464.169 64.38C463.349 64.32 462.589 64.23 461.889 64.11C461.309 64.43 460.889 64.78 460.629 65.16C460.389 65.54 460.269 65.93 460.269 66.33ZM474.649 64.5V49.62H478.039L478.339 52.14C478.799 51.26 479.459 50.56 480.319 50.04C481.199 49.52 482.229 49.26 483.409 49.26C485.249 49.26 486.679 49.84 487.699 51C488.719 52.16 489.229 53.86 489.229 56.1V64.5H485.389V56.46C485.389 55.18 485.129 54.2 484.609 53.52C484.089 52.84 483.279 52.5 482.179 52.5C481.099 52.5 480.209 52.88 479.509 53.64C478.829 54.4 478.489 55.46 478.489 56.82V64.5H474.649Z" fill="white"/>
<path d="M657.42 18.5V4.5H661.96C663.6 4.5 664.947 4.78667 666 5.36C667.067 5.93333 667.853 6.74667 668.36 7.8C668.88 8.84 669.14 10.08 669.14 11.52C669.14 12.9467 668.88 14.1867 668.36 15.24C667.853 16.28 667.067 17.0867 666 17.66C664.947 18.22 663.6 18.5 661.96 18.5H657.42ZM659.54 16.7H661.88C663.147 16.7 664.147 16.4933 664.88 16.08C665.627 15.6667 666.16 15.0733 666.48 14.3C666.813 13.5267 666.98 12.6 666.98 11.52C666.98 10.44 666.813 9.50667 666.48 8.72C666.16 7.93333 665.627 7.33333 664.88 6.92C664.147 6.49333 663.147 6.28 661.88 6.28H659.54V16.7ZM674.763 18.74C673.923 18.74 673.229 18.6 672.683 18.32C672.136 18.04 671.729 17.6733 671.463 17.22C671.196 16.7533 671.063 16.2467 671.063 15.7C671.063 14.74 671.436 13.98 672.183 13.42C672.929 12.86 673.996 12.58 675.383 12.58H677.983V12.4C677.983 11.6267 677.769 11.0467 677.343 10.66C676.929 10.2733 676.389 10.08 675.723 10.08C675.136 10.08 674.623 10.2267 674.183 10.52C673.756 10.8 673.496 11.22 673.403 11.78H671.283C671.349 11.06 671.589 10.4467 672.003 9.94C672.429 9.42 672.963 9.02667 673.603 8.76C674.256 8.48 674.969 8.34 675.743 8.34C677.129 8.34 678.203 8.70667 678.963 9.44C679.723 10.16 680.103 11.1467 680.103 12.4V18.5H678.263L678.083 16.8C677.803 17.3467 677.396 17.8067 676.863 18.18C676.329 18.5533 675.629 18.74 674.763 18.74ZM675.183 17.02C675.756 17.02 676.236 16.8867 676.623 16.62C677.023 16.34 677.329 15.9733 677.543 15.52C677.769 15.0667 677.909 14.5667 677.963 14.02H675.603C674.763 14.02 674.163 14.1667 673.803 14.46C673.456 14.7533 673.283 15.12 673.283 15.56C673.283 16.0133 673.449 16.3733 673.783 16.64C674.129 16.8933 674.596 17.02 675.183 17.02ZM686.539 18.5C685.566 18.5 684.792 18.2667 684.219 17.8C683.646 17.32 683.359 16.4733 683.359 15.26V10.36H681.659V8.58H683.359L683.619 6.06H685.479V8.58H688.279V10.36H685.479V15.26C685.479 15.8067 685.592 16.1867 685.819 16.4C686.059 16.6 686.466 16.7 687.039 16.7H688.179V18.5H686.539ZM694.851 18.74C693.878 18.74 693.011 18.5267 692.251 18.1C691.504 17.66 690.918 17.0533 690.491 16.28C690.064 15.5067 689.851 14.6067 689.851 13.58C689.851 12.54 690.058 11.6267 690.471 10.84C690.898 10.0533 691.484 9.44 692.231 9C692.991 8.56 693.871 8.34 694.871 8.34C695.844 8.34 696.691 8.56 697.411 9C698.131 9.42667 698.691 10 699.091 10.72C699.491 11.44 699.691 12.2333 699.691 13.1C699.691 13.2333 699.684 13.38 699.671 13.54C699.671 13.6867 699.664 13.8533 699.651 14.04H691.931C691.998 15 692.311 15.7333 692.871 16.24C693.444 16.7333 694.104 16.98 694.851 16.98C695.451 16.98 695.951 16.8467 696.351 16.58C696.764 16.3 697.071 15.9267 697.271 15.46H699.391C699.124 16.3933 698.591 17.1733 697.791 17.8C697.004 18.4267 696.024 18.74 694.851 18.74ZM694.851 10.08C694.144 10.08 693.518 10.2933 692.971 10.72C692.424 11.1333 692.091 11.76 691.971 12.6H697.571C697.531 11.8267 697.258 11.2133 696.751 10.76C696.244 10.3067 695.611 10.08 694.851 10.08Z" fill="#D9D9D9"/>
<path d="M663.53 64.86C661.49 64.86 659.85 64.29 658.61 63.15C657.39 61.99 656.78 60.35 656.78 58.23H660.62C660.64 59.21 660.87 59.99 661.31 60.57C661.75 61.15 662.46 61.44 663.44 61.44C664.36 61.44 665.03 61.17 665.45 60.63C665.87 60.07 666.08 59.34 666.08 58.44V43.5H669.92V58.44C669.92 60.5 669.34 62.09 668.18 63.21C667.04 64.31 665.49 64.86 663.53 64.86ZM679.047 64.86C677.767 64.86 676.717 64.66 675.897 64.26C675.077 63.84 674.467 63.29 674.067 62.61C673.667 61.93 673.467 61.18 673.467 60.36C673.467 58.98 674.007 57.86 675.087 57C676.167 56.14 677.787 55.71 679.947 55.71H683.727V55.35C683.727 54.33 683.437 53.58 682.857 53.1C682.277 52.62 681.557 52.38 680.697 52.38C679.917 52.38 679.237 52.57 678.657 52.95C678.077 53.31 677.717 53.85 677.577 54.57H673.827C673.927 53.49 674.287 52.55 674.907 51.75C675.547 50.95 676.367 50.34 677.367 49.92C678.367 49.48 679.487 49.26 680.727 49.26C682.847 49.26 684.517 49.79 685.737 50.85C686.957 51.91 687.567 53.41 687.567 55.35V64.5H684.297L683.937 62.1C683.497 62.9 682.877 63.56 682.077 64.08C681.297 64.6 680.287 64.86 679.047 64.86ZM679.917 61.86C681.017 61.86 681.867 61.5 682.467 60.78C683.087 60.06 683.477 59.17 683.637 58.11H680.367C679.347 58.11 678.617 58.3 678.177 58.68C677.737 59.04 677.517 59.49 677.517 60.03C677.517 60.61 677.737 61.06 678.177 61.38C678.617 61.7 679.197 61.86 679.917 61.86ZM691.231 64.5V49.62H694.621L694.921 52.14C695.381 51.26 696.041 50.56 696.901 50.04C697.781 49.52 698.811 49.26 699.991 49.26C701.831 49.26 703.261 49.84 704.281 51C705.301 52.16 705.811 53.86 705.811 56.1V64.5H701.971V56.46C701.971 55.18 701.711 54.2 701.191 53.52C700.671 52.84 699.861 52.5 698.761 52.5C697.681 52.5 696.791 52.88 696.091 53.64C695.411 54.4 695.071 55.46 695.071 56.82V64.5H691.231ZM716.212 64.5V61.71C717.492 60.65 718.732 59.6 719.932 58.56C721.152 57.52 722.232 56.49 723.172 55.47C724.132 54.45 724.892 53.46 725.452 52.5C726.032 51.52 726.322 50.57 726.322 49.65C726.322 48.79 726.082 48.03 725.602 47.37C725.142 46.71 724.372 46.38 723.292 46.38C722.192 46.38 721.362 46.74 720.802 47.46C720.242 48.18 719.962 49.05 719.962 50.07H716.242C716.282 48.53 716.622 47.25 717.262 46.23C717.902 45.19 718.752 44.42 719.812 43.92C720.872 43.4 722.062 43.14 723.382 43.14C725.522 43.14 727.182 43.73 728.362 44.91C729.562 46.07 730.162 47.58 730.162 49.44C730.162 50.6 729.892 51.73 729.352 52.83C728.832 53.93 728.142 54.99 727.282 56.01C726.422 57.03 725.492 57.99 724.492 58.89C723.492 59.77 722.522 60.59 721.582 61.35H730.672V64.5H716.212ZM742.324 64.86C740.384 64.86 738.724 64.41 737.344 63.51C735.964 62.59 734.894 61.32 734.134 59.7C733.394 58.06 733.024 56.16 733.024 54C733.024 51.86 733.394 49.97 734.134 48.33C734.894 46.69 735.964 45.42 737.344 44.52C738.724 43.6 740.384 43.14 742.324 43.14C744.264 43.14 745.924 43.6 747.304 44.52C748.684 45.42 749.744 46.69 750.484 48.33C751.244 49.97 751.624 51.86 751.624 54C751.624 56.16 751.244 58.06 750.484 59.7C749.744 61.32 748.684 62.59 747.304 63.51C745.924 64.41 744.264 64.86 742.324 64.86ZM742.324 61.41C743.904 61.41 745.194 60.75 746.194 59.43C747.194 58.11 747.694 56.3 747.694 54C747.694 51.7 747.194 49.89 746.194 48.57C745.194 47.25 743.904 46.59 742.324 46.59C740.724 46.59 739.424 47.25 738.424 48.57C737.444 49.89 736.954 51.7 736.954 54C736.954 56.3 737.444 58.11 738.424 59.43C739.424 60.75 740.724 61.41 742.324 61.41ZM754.356 64.5V61.71C755.636 60.65 756.876 59.6 758.076 58.56C759.296 57.52 760.376 56.49 761.316 55.47C762.276 54.45 763.036 53.46 763.596 52.5C764.176 51.52 764.466 50.57 764.466 49.65C764.466 48.79 764.226 48.03 763.746 47.37C763.286 46.71 762.516 46.38 761.436 46.38C760.336 46.38 759.506 46.74 758.946 47.46C758.386 48.18 758.106 49.05 758.106 50.07H754.386C754.426 48.53 754.766 47.25 755.406 46.23C756.046 45.19 756.896 44.42 757.956 43.92C759.016 43.4 760.206 43.14 761.526 43.14C763.666 43.14 765.326 43.73 766.506 44.91C767.706 46.07 768.306 47.58 768.306 49.44C768.306 50.6 768.036 51.73 767.496 52.83C766.976 53.93 766.286 54.99 765.426 56.01C764.566 57.03 763.636 57.99 762.636 58.89C761.636 59.77 760.666 60.59 759.726 61.35H768.816V64.5H754.356ZM778.875 64.86C777.495 64.86 776.245 64.62 775.125 64.14C774.005 63.64 773.105 62.88 772.425 61.86C771.745 60.84 771.385 59.56 771.345 58.02H775.125C775.145 59.04 775.475 59.9 776.115 60.6C776.775 61.28 777.695 61.62 778.875 61.62C779.995 61.62 780.855 61.31 781.455 60.69C782.055 60.07 782.355 59.29 782.355 58.35C782.355 57.25 781.955 56.42 781.155 55.86C780.375 55.28 779.365 54.99 778.125 54.99H776.565V51.84H778.155C779.175 51.84 780.025 51.6 780.705 51.12C781.385 50.64 781.725 49.93 781.725 48.99C781.725 48.21 781.465 47.59 780.945 47.13C780.445 46.65 779.745 46.41 778.845 46.41C777.865 46.41 777.095 46.7 776.535 47.28C775.995 47.86 775.695 48.57 775.635 49.41H771.885C771.965 47.47 772.635 45.94 773.895 44.82C775.175 43.7 776.825 43.14 778.845 43.14C780.285 43.14 781.495 43.4 782.475 43.92C783.475 44.42 784.225 45.09 784.725 45.93C785.245 46.77 785.505 47.7 785.505 48.72C785.505 49.9 785.175 50.9 784.515 51.72C783.875 52.52 783.075 53.06 782.115 53.34C783.295 53.58 784.255 54.16 784.995 55.08C785.735 55.98 786.105 57.12 786.105 58.5C786.105 59.66 785.825 60.72 785.265 61.68C784.705 62.64 783.885 63.41 782.805 63.99C781.745 64.57 780.435 64.86 778.875 64.86Z" fill="white"/>
</svg>
